<svg xmlns="http://www.w3.org/2000/svg" width="618" height="623" fill="none"><path fill="#fff" d="M309 623c170.656 0 309-139.463 309-311.5S479.656 0 309 0 0 139.463 0 311.5 138.344 623 309 623"/><path fill="#000" d="M556.753 449.453c-17.991 4.613-29.117.199-39.098-14.912-22.41-33.841-47.147-66.131-71.016-99.017-3.077-4.255-6.273-8.43-10.258-13.719-28.248 38.414-56.457 74.998-82.93 113.054-9.469 13.6-19.411 19.525-37.086 14.713l106.208-143.673-98.87-129.755c17.004-3.341 28.761-1.631 39.177 13.719 23.001 33.88 48.37 66.13 73.659 100.249 25.447-34 50.5-66.289 74.172-99.852 9.508-13.599 19.726-18.769 36.81-13.758-12.941 17.298-25.605 34.317-38.349 51.218-17.201 22.785-34.087 45.849-51.92 68.158-6.352 7.953-5.326 13.123.355 20.638 32.983 43.703 65.571 87.843 99.146 132.937M62.247 303.513c2.84-14.355 4.735-28.989 8.68-43.066 23.672-85.218 120.727-120.649 187.402-67.84 39.059 30.977 48.764 74.64 46.831 123.87H85.012c-3.314 88.319 59.771 141.645 140.177 114.445 28.209-9.544 44.818-31.812 53.143-59.648 4.221-13.958 11.205-16.145 24.224-12.169-6.667 34.835-21.778 63.943-53.34 82.156-47.344 27.279-114.927 18.451-150.475-19.445-20.989-22.269-29.905-49.986-33.85-79.929-.592-4.772-1.815-9.464-2.762-14.197q.118-12.089.118-24.177m23.16-5.925h198.961c-1.302-63.864-40.755-109.236-94.687-109.634-59.18-.477-101.71 43.822-104.275 109.634"/></svg>