<svg xmlns="http://www.w3.org/2000/svg" width="895" height="895" fill="none"><rect width="895" height="895" fill="#0D1117" rx="52"/><path fill="#EEE" fill-rule="evenodd" d="M447.24 60C227.879 60 50 237.84 50 457.24c0 175.517 113.821 324.413 271.657 376.946 19.846 3.684 27.135-8.617 27.135-19.109 0-9.473-.369-40.765-.54-73.958C237.74 765.149 214.42 694.25 214.42 694.25c-18.07-45.916-44.106-58.125-44.106-58.125-36.048-24.654 2.717-24.141 2.717-24.141 39.883 2.795 60.893 40.935 60.893 40.935 35.43 60.716 92.93 43.166 115.598 33.023 3.565-25.675 13.86-43.206 25.22-53.125-88.232-10.032-180.99-44.1-180.99-196.311 0-43.37 15.524-78.806 40.935-106.632-4.131-9.999-17.728-50.401 3.842-105.118 0 0 33.351-10.677 109.263 40.718 31.693-8.808 65.682-13.235 99.448-13.386 33.746.151 67.754 4.565 99.507 13.373 75.82-51.395 109.131-40.718 109.131-40.718 21.623 54.71 8.026 95.119 3.901 105.118 25.471 27.825 40.883 63.262 40.883 106.631 0 152.573-92.929 186.161-181.385 196.002 14.255 12.328 26.95 36.509 26.95 73.563 0 53.152-.46 95.929-.46 109.013 0 10.571 7.157 22.958 27.286 19.057 157.743-52.586 271.433-201.435 271.433-376.887C844.48 237.853 666.62 60 447.24 60" clip-rule="evenodd"/><path fill="#EEE" d="M200.455 630.343c-.875 1.974-3.98 2.566-6.808 1.217-2.895-1.289-4.506-3.98-3.572-5.96.855-2.039 3.966-2.598 6.841-1.236 2.894 1.296 4.539 4.012 3.532 5.986zm16.09 17.952c-1.888 1.756-5.591.941-8.104-1.842-2.605-2.763-3.092-6.466-1.165-8.249 1.961-1.75 5.552-.921 8.157 1.842 2.592 2.802 3.105 6.473 1.119 8.255zm15.669 22.872c-2.434 1.697-6.42.112-8.88-3.421-2.434-3.539-2.434-7.782.065-9.472 2.454-1.697 6.381-.165 8.881 3.335 2.421 3.585 2.421 7.835-.066 9.558m21.451 22.109c-2.17 2.401-6.815 1.756-10.209-1.513-3.467-3.203-4.434-7.762-2.256-10.156 2.21-2.408 6.874-1.737 10.288 1.512 3.467 3.197 4.513 7.763 2.19 10.151zm29.602 12.834c-.967 3.111-5.427 4.526-9.933 3.197-4.493-1.362-7.433-4.999-6.512-8.144.921-3.137 5.413-4.604 9.946-3.19 4.493 1.355 7.433 4.973 6.499 8.137m32.516 2.375c.111 3.276-3.704 5.986-8.42 6.052-4.756.111-8.605-2.546-8.651-5.769 0-3.309 3.737-5.986 8.486-6.079 4.717-.085 8.591 2.546 8.591 5.789zm30.246-5.144c.565 3.19-2.717 6.472-7.407 7.347-4.605.856-8.881-1.131-9.473-4.295-.565-3.276 2.776-6.559 7.381-7.407 4.697-.809 8.907 1.112 9.499 4.355"/></svg>