<svg xmlns="http://www.w3.org/2000/svg" width="1091" height="446" fill="none"><rect width="1091" height="446" fill="#D9D9D9" rx="78"/><path fill="#000" d="M301.25 215.687h-8.438c-3.515 35.86-8.437 79.454-70.312 79.454h-28.125c-16.172 0-16.875-2.11-16.875-14.063V94.75c0-11.953 0-16.875 33.047-16.875h11.25V67.328c-13.36.703-44.297.703-59.063.703-13.359 0-40.781 0-52.734-.703v10.547h7.734c26.719 0 27.422 3.516 27.422 16.172v183.516c0 12.656-.703 16.171-27.422 16.171H110v10.547h181.406z"/><path fill="#000" d="M294.922 66.625c-1.406-4.219-2.109-5.625-6.328-5.625s-5.625 1.406-7.032 5.625l-56.25 142.734c-2.109 5.625-6.328 16.875-28.124 16.875v8.438h54.14v-8.438c-10.547 0-17.578-4.921-17.578-11.953 0-1.406 0-2.109.703-4.922l11.953-30.234h69.61l14.062 35.859c.703 1.407 1.406 2.813 1.406 4.219 0 7.031-13.359 7.031-19.687 7.031v8.438h68.906v-8.438h-4.922c-16.172 0-18.281-2.109-20.39-9.14zm-13.36 25.313L312.5 171.39h-62.578z"/><path fill="#000" d="M575.469 69.438H362.422l-6.328 78.046h8.437c4.922-56.25 9.844-68.203 63.282-68.203 6.328 0 15.468 0 18.984.703 7.031 1.407 7.031 4.922 7.031 13.36v183.515c0 11.953 0 16.875-36.562 16.875h-14.063v10.547c14.063-.703 49.922-.703 66.094-.703s52.031 0 66.797.703v-10.547h-14.063c-36.562 0-36.562-4.922-36.562-16.875V94.047c0-7.031 0-11.953 6.328-13.36 3.515-.703 13.359-.703 19.687-.703 52.735 0 57.657 11.25 62.578 68.204h8.438z"/><path fill="#000" d="M763.203 294.437h-8.437c-8.438 53.438-16.875 79.454-76.641 79.454h-46.406c-16.172 0-16.875-2.11-16.875-14.063v-93.516h30.937c33.75 0 37.969 11.25 37.969 40.782h8.438v-92.11h-8.438c0 29.532-3.516 40.782-37.969 40.782h-30.937v-84.375c0-11.25.703-14.063 16.875-14.063h45c53.437 0 62.578 18.985 68.203 68.203h8.437l-9.843-78.75H547.344v10.547h7.734c26.719 0 27.422 3.516 27.422 16.172v182.812c0 12.657-.703 16.172-27.422 16.172h-7.734v11.953h201.094z"/><path fill="#000" d="m868.672 170.687 47.812-70.312c7.032-11.25 18.985-22.5 50.625-22.5V67.328h-83.671v10.547c14.062 0 21.796 7.734 21.796 16.172 0 3.516-.703 4.219-2.812 7.734l-40.078 59.063-45-67.5c-.703-.703-2.11-3.516-2.11-4.922 0-4.219 7.735-9.844 22.5-10.547V67.328c-11.953.703-37.265.703-50.625.703-10.546 0-32.343 0-45.703-.703v10.547h6.328c18.985 0 26.016 2.11 32.344 11.953l63.985 97.031-56.954 84.375c-4.921 7.032-15.468 23.203-50.625 23.203v10.547h83.672v-10.547c-16.172 0-21.797-9.843-21.797-16.171 0-2.813.704-4.219 3.516-8.438l49.219-73.125 55.547 83.672c.703 1.406 1.406 2.812 1.406 3.516 0 4.218-7.734 9.843-22.5 10.546v10.547c11.953-.703 37.969-.703 50.625-.703 14.766 0 30.937 0 45.703.703v-10.547h-6.328c-18.281 0-25.313-1.406-33.047-12.656z"/></svg>