<svg width="618" height="623" viewBox="0 0 618 623" fill="none" xmlns="http://www.w3.org/2000/svg">
<path d="M309 623C479.656 623 618 483.537 618 311.5C618 139.463 479.656 0 309 0C138.344 0 0 139.463 0 311.5C0 483.537 138.344 623 309 623Z" fill="white"/>
<path d="M556.753 449.453C538.762 454.066 527.636 449.652 517.655 434.541C495.245 400.7 470.508 368.41 446.639 335.524C443.562 331.269 440.366 327.094 436.381 321.805C408.133 360.219 379.924 396.803 353.451 434.859C343.982 448.459 334.04 454.384 316.365 449.572L422.573 305.899L323.703 176.144C340.707 172.803 352.464 174.513 362.88 189.863C385.881 223.743 411.25 255.993 436.539 290.112C461.986 256.112 487.039 223.823 510.711 190.26C520.219 176.661 530.437 171.491 547.521 176.502C534.58 193.8 521.916 210.819 509.172 227.72C491.971 250.505 475.085 273.569 457.252 295.878C450.9 303.831 451.926 309.001 457.607 316.516C490.59 360.219 523.178 404.359 556.753 449.453ZM62.2473 303.513C65.0879 289.158 66.9816 274.524 70.927 260.447C94.5988 175.229 191.654 139.798 258.329 192.607C297.388 223.584 307.093 267.247 305.16 316.477H85.0117C81.6977 404.796 144.783 458.122 225.189 430.922C253.398 421.378 270.007 399.11 278.332 371.274C282.553 357.316 289.537 355.129 302.556 359.105C295.889 393.94 280.778 423.048 249.216 441.261C201.872 468.54 134.289 459.712 98.7414 421.816C77.7523 399.547 68.8359 371.83 64.8906 341.887C64.2988 337.115 63.0758 332.423 62.1289 327.69C62.2078 319.631 62.2473 311.572 62.2473 303.513ZM85.4062 297.588H284.368C283.066 233.724 243.613 188.352 189.681 187.954C130.501 187.477 87.9707 231.776 85.4062 297.588Z" fill="black"/>
</svg>
