<svg width="895" height="895" viewBox="0 0 895 895" fill="none" xmlns="http://www.w3.org/2000/svg">
<rect width="895" height="895" rx="52" fill="#0D1117"/>
<path fill-rule="evenodd" clip-rule="evenodd" d="M447.24 60C227.879 60 50 237.84 50 457.24C50 632.757 163.821 781.653 321.657 834.186C341.503 837.87 348.792 825.569 348.792 815.077C348.792 805.604 348.423 774.312 348.252 741.119C237.74 765.149 214.42 694.25 214.42 694.25C196.35 648.334 170.314 636.125 170.314 636.125C134.266 611.471 173.031 611.984 173.031 611.984C212.914 614.779 233.924 652.919 233.924 652.919C269.354 713.635 326.854 696.085 349.522 685.942C353.087 660.267 363.382 642.736 374.742 632.817C286.51 622.785 193.752 588.717 193.752 436.506C193.752 393.136 209.276 357.7 234.687 329.874C230.556 319.875 216.959 279.473 238.529 224.756C238.529 224.756 271.88 214.079 347.792 265.474C379.485 256.666 413.474 252.239 447.24 252.088C480.986 252.239 514.994 256.653 546.747 265.461C622.567 214.066 655.878 224.743 655.878 224.743C677.501 279.453 663.904 319.862 659.779 329.861C685.25 357.686 700.662 393.123 700.662 436.492C700.662 589.065 607.733 622.653 519.277 632.494C533.532 644.822 546.227 669.003 546.227 706.057C546.227 759.209 545.767 801.986 545.767 815.07C545.767 825.641 552.924 838.028 573.053 834.127C730.796 781.541 844.486 632.692 844.486 457.24C844.48 237.853 666.62 60 447.24 60Z" fill="#EEEEEE"/>
<path d="M200.455 630.343C199.58 632.317 196.475 632.909 193.647 631.56C190.752 630.271 189.141 627.58 190.075 625.6C190.93 623.561 194.041 623.002 196.916 624.364C199.81 625.66 201.455 628.376 200.448 630.35L200.455 630.343ZM216.545 648.295C214.657 650.051 210.954 649.236 208.441 646.453C205.836 643.69 205.349 639.987 207.276 638.204C209.237 636.454 212.828 637.283 215.433 640.046C218.025 642.848 218.538 646.519 216.552 648.301L216.545 648.295ZM232.214 671.167C229.78 672.864 225.794 671.279 223.334 667.746C220.9 664.207 220.9 659.964 223.399 658.274C225.853 656.577 229.78 658.109 232.28 661.609C234.701 665.194 234.701 669.444 232.214 671.167ZM253.665 693.276C251.495 695.677 246.85 695.032 243.456 691.763C239.989 688.56 239.022 684.001 241.2 681.607C243.41 679.199 248.074 679.87 251.488 683.119C254.955 686.316 256.001 690.882 253.678 693.27L253.665 693.276ZM283.267 706.11C282.3 709.221 277.84 710.636 273.334 709.307C268.841 707.945 265.901 704.308 266.822 701.163C267.743 698.026 272.235 696.559 276.768 697.973C281.261 699.328 284.201 702.946 283.267 706.11ZM315.783 708.485C315.894 711.761 312.079 714.471 307.363 714.537C302.607 714.648 298.758 711.991 298.712 708.768C298.712 705.459 302.449 702.782 307.198 702.689C311.915 702.604 315.789 705.235 315.789 708.478L315.783 708.485ZM346.029 703.341C346.594 706.531 343.312 709.813 338.622 710.688C334.017 711.544 329.741 709.557 329.149 706.393C328.584 703.117 331.925 699.834 336.53 698.986C341.227 698.177 345.437 700.098 346.029 703.341Z" fill="#EEEEEE"/>
</svg>
