<svg width="1091" height="446" viewBox="0 0 1091 446" fill="none" xmlns="http://www.w3.org/2000/svg">
<rect width="1091" height="446" rx="78" fill="#D9D9D9"/>
<path d="M301.25 215.687H292.812C289.297 251.547 284.375 295.141 222.5 295.141H194.375C178.203 295.141 177.5 293.031 177.5 281.078V94.75C177.5 82.7969 177.5 77.875 210.547 77.875H221.797V67.3281C208.437 68.0313 177.5 68.0312 162.734 68.0312C149.375 68.0312 121.953 68.0313 110 67.3281V77.875H117.734C144.453 77.875 145.156 81.3906 145.156 94.0469V277.563C145.156 290.219 144.453 293.734 117.734 293.734H110V304.281H291.406L301.25 215.687Z" fill="black"/>
<path d="M294.922 66.625C293.516 62.4062 292.813 61 288.594 61C284.375 61 282.969 62.4062 281.562 66.625L225.312 209.359C223.203 214.984 218.984 226.234 197.188 226.234V234.672H251.328V226.234C240.781 226.234 233.75 221.313 233.75 214.281C233.75 212.875 233.75 212.172 234.453 209.359L246.406 179.125H316.016L330.078 214.984C330.781 216.391 331.484 217.797 331.484 219.203C331.484 226.234 318.125 226.234 311.797 226.234V234.672H380.703V226.234H375.781C359.609 226.234 357.5 224.125 355.391 217.094L294.922 66.625ZM281.562 91.9375L312.5 171.391H249.922L281.562 91.9375Z" fill="black"/>
<path d="M575.469 69.4375H362.422L356.094 147.484H364.531C369.453 91.2344 374.375 79.2812 427.813 79.2812C434.141 79.2812 443.281 79.2812 446.797 79.9844C453.828 81.3906 453.828 84.9062 453.828 93.3437V276.859C453.828 288.812 453.828 293.734 417.266 293.734H403.203V304.281C417.266 303.578 453.125 303.578 469.297 303.578C485.469 303.578 521.328 303.578 536.094 304.281V293.734H522.031C485.469 293.734 485.469 288.812 485.469 276.859V94.0469C485.469 87.0156 485.469 82.0937 491.797 80.6875C495.312 79.9844 505.156 79.9844 511.484 79.9844C564.219 79.9844 569.141 91.2344 574.062 148.188H582.5L575.469 69.4375Z" fill="black"/>
<path d="M763.203 294.437H754.766C746.328 347.875 737.891 373.891 678.125 373.891H631.719C615.547 373.891 614.844 371.781 614.844 359.828V266.312H645.781C679.531 266.312 683.75 277.562 683.75 307.094H692.188V214.984H683.75C683.75 244.516 680.234 255.766 645.781 255.766H614.844V171.391C614.844 160.141 615.547 157.328 631.719 157.328H676.719C730.156 157.328 739.297 176.313 744.922 225.531H753.359L743.516 146.781H547.344V157.328H555.078C581.797 157.328 582.5 160.844 582.5 173.5V356.312C582.5 368.969 581.797 372.484 555.078 372.484H547.344V384.437H748.438L763.203 294.437Z" fill="black"/>
<path d="M868.672 170.687L916.484 100.375C923.516 89.125 935.469 77.875 967.109 77.875V67.3281H883.438V77.875C897.5 77.875 905.234 85.6094 905.234 94.0469C905.234 97.5625 904.531 98.2656 902.422 101.781L862.344 160.844L817.344 93.3437C816.641 92.6406 815.234 89.8281 815.234 88.4219C815.234 84.2031 822.969 78.5781 837.734 77.875V67.3281C825.781 68.0313 800.469 68.0312 787.109 68.0312C776.563 68.0312 754.766 68.0313 741.406 67.3281V77.875H747.734C766.719 77.875 773.75 79.9844 780.078 89.8281L844.063 186.859L787.109 271.234C782.188 278.266 771.641 294.437 736.484 294.437V304.984H820.156V294.437C803.984 294.437 798.359 284.594 798.359 278.266C798.359 275.453 799.063 274.047 801.875 269.828L851.094 196.703L906.641 280.375C907.344 281.781 908.047 283.187 908.047 283.891C908.047 288.109 900.313 293.734 885.547 294.437V304.984C897.5 304.281 923.516 304.281 936.172 304.281C950.938 304.281 967.109 304.281 981.875 304.984V294.437H975.547C957.266 294.437 950.234 293.031 942.5 281.781L868.672 170.687Z" fill="black"/>
</svg>
